<svg xmlns="http://www.w3.org/2000/svg" width="17.314" height="17.314" viewBox="0 0 17.314 17.314">
  <g id="Icon_feather-arrow-up-right" data-name="Icon feather-arrow-up-right" transform="translate(-9.5 -9.5)">
    <path id="Path_354" data-name="Path 354" d="M10.518,26.814a1.018,1.018,0,0,1-.72-1.739L25.076,9.8a1.018,1.018,0,0,1,1.44,1.44L11.239,26.516A1.015,1.015,0,0,1,10.518,26.814Z" transform="translate(0)"/>
    <path id="Path_355" data-name="Path 355" d="M25.8,26.814A1.018,1.018,0,0,1,24.777,25.8V11.537H10.518a1.018,1.018,0,0,1,0-2.037H25.8a1.018,1.018,0,0,1,1.018,1.018V25.8A1.018,1.018,0,0,1,25.8,26.814Z"/>
  </g>
</svg>
